<?xml version="1.0" encoding="UTF-8"?>
<!-- Individual seat SVG. Toggle class on the <g> to change state: "available", "selected", "occupied", "disabled" -->
<svg xmlns="http://www.w3.org/2000/svg" viewBox="0 0 64 64" width="64" height="64" role="img" aria-label="Seat">
  <defs>
    <linearGradient id="seatGrad" x1="0" x2="1" y1="0" y2="1">
      <stop offset="0" stop-color="#ffffff" stop-opacity="0.12"/>
      <stop offset="1" stop-color="#000000" stop-opacity="0.06"/>
    </linearGradient>
    <filter id="shadow" x="-50%" y="-50%" width="200%" height="200%">
      <feDropShadow dx="0" dy="2" stdDeviation="2" flood-color="#000" flood-opacity="0.25"/>
    </filter>
  </defs>

  <style>
    .seat { cursor: pointer; filter: url(#shadow); transform-origin: 32px 32px; transition: transform 120ms ease, opacity 120ms ease; }
    .seat.available .cushion { fill: #2e7d32; }
    .seat.available .back { fill: #388e3c; }
    .seat.available .highlight { fill: url(#seatGrad); opacity: 0.35; }

    .seat.selected { transform: scale(1.06); }
    .seat.selected .cushion { fill: #ffb300; }
    .seat.selected .back { fill: #ffa000; }
    .seat.selected .outline { stroke: #ff9800; stroke-width: 1.6; opacity: 0.95; }

    .seat.occupied { cursor: default; opacity: 0.9; }
    .seat.occupied .cushion { fill: #b71c1c; }
    .seat.occupied .back { fill: #c62828; }
    .seat.occupied .highlight { display: none; }

    .seat.disabled { cursor: not-allowed; opacity: 0.45; }
    .seat .outline { fill: none; stroke: rgba(0,0,0,0.12); stroke-width: 1; }
  </style>

  <!-- Usage: change class to "seat available" / "seat selected" / "seat occupied" / "seat disabled" -->
  <g class="seat available" role="button" aria-pressed="false" tabindex="0">
    <!-- backrest -->
    <rect class="back" x="14" y="6" width="36" height="18" rx="4"/>
    <rect class="outline" x="14" y="6" width="36" height="18" rx="4"/>

    <!-- cushion / seat -->
    <rect class="cushion" x="8" y="26" width="48" height="22" rx="5"/>
    <rect class="outline" x="8" y="26" width="48" height="22" rx="5"/>

    <!-- small highlight -->
    <path class="highlight" d="M12 30c0-2 3-4 8-4h24c5 0 8 2 8 4v6c0 2-3 4-8 4H20c-5 0-8-2-8-4v-6z"/>
  </g>
</svg>